<mxfile host="app.diagrams.net" agent="Mozilla/5.0 (Macintosh; Intel Mac OS X 10_15_7) AppleWebKit/537.36 (KHTML, like Gecko) Chrome/131.0.0.0 Safari/537.36" version="26.0.4">
  <diagram name="第 1 页" id="ODAFd5VKZUiwjq1AUtUZ">
    <mxGraphModel dx="1774" dy="557" grid="1" gridSize="10" guides="1" tooltips="1" connect="1" arrows="1" fold="1" page="1" pageScale="1" pageWidth="827" pageHeight="1169" math="0" shadow="0">
      <root>
        <mxCell id="0" />
        <mxCell id="1" parent="0" />
        <mxCell id="73MqjRvDGMsxfJFapzt3-10" value="" style="group" vertex="1" connectable="0" parent="1">
          <mxGeometry x="120" y="80" width="240" height="50" as="geometry" />
        </mxCell>
        <mxCell id="73MqjRvDGMsxfJFapzt3-1" value="" style="rounded=0;whiteSpace=wrap;html=1;" vertex="1" parent="73MqjRvDGMsxfJFapzt3-10">
          <mxGeometry width="240" height="50" as="geometry" />
        </mxCell>
        <mxCell id="73MqjRvDGMsxfJFapzt3-4" value="用户1" style="rounded=0;whiteSpace=wrap;html=1;fillColor=#FFCCCC;" vertex="1" parent="73MqjRvDGMsxfJFapzt3-10">
          <mxGeometry x="10" y="10" width="60" height="30" as="geometry" />
        </mxCell>
        <mxCell id="73MqjRvDGMsxfJFapzt3-8" value="用户2" style="rounded=0;whiteSpace=wrap;html=1;" vertex="1" parent="73MqjRvDGMsxfJFapzt3-10">
          <mxGeometry x="90" y="10" width="60" height="30" as="geometry" />
        </mxCell>
        <mxCell id="73MqjRvDGMsxfJFapzt3-9" value="用户3" style="rounded=0;whiteSpace=wrap;html=1;" vertex="1" parent="73MqjRvDGMsxfJFapzt3-10">
          <mxGeometry x="170" y="10" width="60" height="30" as="geometry" />
        </mxCell>
        <mxCell id="73MqjRvDGMsxfJFapzt3-11" value="" style="group" vertex="1" connectable="0" parent="1">
          <mxGeometry y="160" width="240" height="50" as="geometry" />
        </mxCell>
        <mxCell id="73MqjRvDGMsxfJFapzt3-12" value="" style="rounded=0;whiteSpace=wrap;html=1;" vertex="1" parent="73MqjRvDGMsxfJFapzt3-11">
          <mxGeometry width="240" height="50" as="geometry" />
        </mxCell>
        <mxCell id="73MqjRvDGMsxfJFapzt3-13" value="用户A1" style="rounded=0;whiteSpace=wrap;html=1;fillColor=#FFCCCC;" vertex="1" parent="73MqjRvDGMsxfJFapzt3-11">
          <mxGeometry x="10" y="10" width="60" height="30" as="geometry" />
        </mxCell>
        <mxCell id="73MqjRvDGMsxfJFapzt3-14" value="用户A2" style="rounded=0;whiteSpace=wrap;html=1;fillColor=#FFCCCC;" vertex="1" parent="73MqjRvDGMsxfJFapzt3-11">
          <mxGeometry x="90" y="10" width="60" height="30" as="geometry" />
        </mxCell>
        <mxCell id="73MqjRvDGMsxfJFapzt3-15" value="用户A3" style="rounded=0;whiteSpace=wrap;html=1;" vertex="1" parent="73MqjRvDGMsxfJFapzt3-11">
          <mxGeometry x="170" y="10" width="60" height="30" as="geometry" />
        </mxCell>
        <mxCell id="73MqjRvDGMsxfJFapzt3-16" value="" style="group" vertex="1" connectable="0" parent="1">
          <mxGeometry x="280" y="160" width="240" height="50" as="geometry" />
        </mxCell>
        <mxCell id="73MqjRvDGMsxfJFapzt3-17" value="" style="rounded=0;whiteSpace=wrap;html=1;" vertex="1" parent="73MqjRvDGMsxfJFapzt3-16">
          <mxGeometry width="240" height="50" as="geometry" />
        </mxCell>
        <mxCell id="73MqjRvDGMsxfJFapzt3-18" value="用户B1" style="rounded=0;whiteSpace=wrap;html=1;fillColor=#FFCCCC;" vertex="1" parent="73MqjRvDGMsxfJFapzt3-16">
          <mxGeometry x="10" y="10" width="60" height="30" as="geometry" />
        </mxCell>
        <mxCell id="73MqjRvDGMsxfJFapzt3-19" value="用户B&lt;span style=&quot;background-color: transparent; color: light-dark(rgb(0, 0, 0), rgb(255, 255, 255));&quot;&gt;2&lt;/span&gt;" style="rounded=0;whiteSpace=wrap;html=1;" vertex="1" parent="73MqjRvDGMsxfJFapzt3-16">
          <mxGeometry x="90" y="10" width="60" height="30" as="geometry" />
        </mxCell>
        <mxCell id="73MqjRvDGMsxfJFapzt3-20" value="用户B3" style="rounded=0;whiteSpace=wrap;html=1;" vertex="1" parent="73MqjRvDGMsxfJFapzt3-16">
          <mxGeometry x="170" y="10" width="60" height="30" as="geometry" />
        </mxCell>
        <mxCell id="73MqjRvDGMsxfJFapzt3-21" value="" style="group" vertex="1" connectable="0" parent="1">
          <mxGeometry y="240" width="240" height="50" as="geometry" />
        </mxCell>
        <mxCell id="73MqjRvDGMsxfJFapzt3-22" value="" style="rounded=0;whiteSpace=wrap;html=1;" vertex="1" parent="73MqjRvDGMsxfJFapzt3-21">
          <mxGeometry width="240" height="50" as="geometry" />
        </mxCell>
        <mxCell id="73MqjRvDGMsxfJFapzt3-23" value="用户Aa1" style="rounded=0;whiteSpace=wrap;html=1;fillColor=#FFCCCC;" vertex="1" parent="73MqjRvDGMsxfJFapzt3-21">
          <mxGeometry x="10" y="10" width="60" height="30" as="geometry" />
        </mxCell>
        <mxCell id="73MqjRvDGMsxfJFapzt3-24" value="用户Aa2" style="rounded=0;whiteSpace=wrap;html=1;" vertex="1" parent="73MqjRvDGMsxfJFapzt3-21">
          <mxGeometry x="90" y="10" width="60" height="30" as="geometry" />
        </mxCell>
        <mxCell id="73MqjRvDGMsxfJFapzt3-25" value="用户Aa3" style="rounded=0;whiteSpace=wrap;html=1;" vertex="1" parent="73MqjRvDGMsxfJFapzt3-21">
          <mxGeometry x="170" y="10" width="60" height="30" as="geometry" />
        </mxCell>
        <mxCell id="73MqjRvDGMsxfJFapzt3-31" value="总部人员" style="text;html=1;align=center;verticalAlign=middle;whiteSpace=wrap;rounded=0;fontStyle=1" vertex="1" parent="1">
          <mxGeometry x="50" y="90" width="60" height="30" as="geometry" />
        </mxCell>
        <mxCell id="73MqjRvDGMsxfJFapzt3-32" value="A集团" style="text;html=1;align=center;verticalAlign=middle;whiteSpace=wrap;rounded=0;fontStyle=1" vertex="1" parent="1">
          <mxGeometry x="-70" y="170" width="60" height="30" as="geometry" />
        </mxCell>
        <mxCell id="73MqjRvDGMsxfJFapzt3-33" value="B集团" style="text;html=1;align=center;verticalAlign=middle;whiteSpace=wrap;rounded=0;fontStyle=1" vertex="1" parent="1">
          <mxGeometry x="540" y="170" width="60" height="30" as="geometry" />
        </mxCell>
        <mxCell id="73MqjRvDGMsxfJFapzt3-34" value="A集团下属a公司" style="text;html=1;align=center;verticalAlign=middle;whiteSpace=wrap;rounded=0;fontStyle=1" vertex="1" parent="1">
          <mxGeometry x="-80" y="250" width="60" height="30" as="geometry" />
        </mxCell>
        <mxCell id="73MqjRvDGMsxfJFapzt3-35" style="rounded=0;orthogonalLoop=1;jettySize=auto;html=1;exitX=0.5;exitY=1;exitDx=0;exitDy=0;entryX=0.5;entryY=0;entryDx=0;entryDy=0;" edge="1" parent="1" source="73MqjRvDGMsxfJFapzt3-1" target="73MqjRvDGMsxfJFapzt3-12">
          <mxGeometry relative="1" as="geometry" />
        </mxCell>
        <mxCell id="73MqjRvDGMsxfJFapzt3-36" style="rounded=0;orthogonalLoop=1;jettySize=auto;html=1;exitX=0.5;exitY=1;exitDx=0;exitDy=0;entryX=0.5;entryY=0;entryDx=0;entryDy=0;" edge="1" parent="1" source="73MqjRvDGMsxfJFapzt3-1" target="73MqjRvDGMsxfJFapzt3-17">
          <mxGeometry relative="1" as="geometry" />
        </mxCell>
        <mxCell id="73MqjRvDGMsxfJFapzt3-37" style="edgeStyle=orthogonalEdgeStyle;rounded=0;orthogonalLoop=1;jettySize=auto;html=1;exitX=0.5;exitY=1;exitDx=0;exitDy=0;entryX=0.5;entryY=0;entryDx=0;entryDy=0;" edge="1" parent="1" source="73MqjRvDGMsxfJFapzt3-12" target="73MqjRvDGMsxfJFapzt3-22">
          <mxGeometry relative="1" as="geometry" />
        </mxCell>
        <mxCell id="73MqjRvDGMsxfJFapzt3-38" value="红底的代表管理员" style="text;html=1;align=center;verticalAlign=middle;whiteSpace=wrap;rounded=0;fillColor=#f8cecc;strokeColor=#b85450;" vertex="1" parent="1">
          <mxGeometry x="384" y="290" width="136" height="30" as="geometry" />
        </mxCell>
      </root>
    </mxGraphModel>
  </diagram>
</mxfile>
